<svg width="66" height="66" viewBox="0 0 66 66" fill="none" xmlns="http://www.w3.org/2000/svg">
<path fill-rule="evenodd" clip-rule="evenodd" d="M32.899 49.4498C27.003 49.4498 21.0129 45.9498 17.517 41.3172C0.744801 41.3172 0.237793 65.2775 0.237793 65.2775H65.5561C65.5561 65.2775 66.8727 41.2109 48.0112 41.2109C44.5193 45.9008 38.795 49.4498 32.899 49.4498Z" fill="#4F00FF"/>
<path fill-rule="evenodd" clip-rule="evenodd" d="M46.948 20.7262C46.948 27.6199 40.6553 40.8022 32.8866 40.8022C25.1302 40.8022 18.8335 27.6158 18.8335 20.7262C18.8335 13.8366 25.1261 8.24316 32.8866 8.24316C40.6553 8.24725 46.948 13.8407 46.948 20.7262Z" fill="#4F00FF"/>
<path fill-rule="evenodd" clip-rule="evenodd" d="M53.2184 14.7768C53.2184 13.4847 51.4193 12.4421 49.1868 12.4339V9.77209C49.1868 9.37547 49.3381 0.0898438 32.9339 0.0898438C16.5379 0.0898438 16.6892 9.37547 16.6892 9.77209V12.5279C16.6483 12.5279 16.6156 12.5157 16.5788 12.5157C14.3586 12.5157 12.5718 13.5419 12.5718 14.8136V26.0741C12.5718 27.3375 14.3627 28.3679 16.5788 28.3679C18.7949 28.3679 20.594 27.3375 20.594 26.0741V14.8136C20.594 14.6377 20.4836 14.4783 20.4182 14.3147V11.244C20.4182 10.9619 19.2406 3.95375 32.9339 3.95375C46.6313 3.95375 45.2084 10.9619 45.2084 11.244V14.4783C45.1839 14.5805 45.1062 14.6705 45.1062 14.7768V26.2949C45.1062 27.591 46.9176 28.6418 49.1623 28.6418C49.2114 28.6418 49.2482 28.6255 49.2972 28.6255V32.8328H45.2739V36.799H53.2593L53.2184 14.7768Z" fill="#4F00FF"/>
</svg>
